<svg width="60" height="54" viewBox="0 0 60 54" fill="none" xmlns="http://www.w3.org/2000/svg">
<path opacity="0.5" d="M34 4.39844C34 2.1893 32.2091 0.398437 30 0.398438C27.7909 0.398438 26 2.1893 26 4.39844L34 4.39844ZM27.1716 52.0269C28.7337 53.589 31.2663 53.589 32.8284 52.0269L58.2843 26.571C59.8464 25.0089 59.8464 22.4763 58.2843 20.9142C56.7222 19.3521 54.1895 19.3521 52.6274 20.9142L30 43.5416L7.37258 20.9142C5.81049 19.3521 3.27783 19.3521 1.71573 20.9142C0.153632 22.4763 0.153632 25.0089 1.71573 26.571L27.1716 52.0269ZM26 4.39844L26 49.1984L34 49.1984L34 4.39844L26 4.39844Z" fill="white"/>
</svg>
