<svg width="17" height="16" viewBox="0 0 17 16" fill="none" xmlns="http://www.w3.org/2000/svg">
<path d="M12.1689 0H4.83105C2.44287 0 0.5 1.94287 0.5 4.33105V11.6691C0.5 14.0571 2.44287 16 4.83105 16H12.1691C14.5571 16 16.5 14.0571 16.5 11.6691V4.33105C16.5 1.94287 14.5571 0 12.1689 0ZM8.5 12.3749C6.08765 12.3749 4.12512 10.4124 4.12512 8C4.12512 5.58765 6.08765 3.62512 8.5 3.62512C10.9124 3.62512 12.8749 5.58765 12.8749 8C12.8749 10.4124 10.9124 12.3749 8.5 12.3749ZM12.9795 4.65686C12.2666 4.65686 11.6868 4.07703 11.6868 3.36414C11.6868 2.65124 12.2666 2.07129 12.9795 2.07129C13.6924 2.07129 14.2723 2.65124 14.2723 3.36414C14.2723 4.07703 13.6924 4.65686 12.9795 4.65686Z" fill="#D6DDE0"/>
<path d="M8.50022 4.56311C6.6052 4.56311 5.06333 6.10486 5.06333 8C5.06333 9.89502 6.6052 11.4369 8.50022 11.4369C10.3954 11.4369 11.9371 9.89502 11.9371 8C11.9371 6.10486 10.3954 4.56311 8.50022 4.56311Z" fill="#D6DDE0"/>
<path d="M12.9794 3.0094C12.7838 3.0094 12.6247 3.16858 12.6247 3.36414C12.6247 3.55969 12.7838 3.71887 12.9794 3.71887C13.1751 3.71887 13.3342 3.55982 13.3342 3.36414C13.3342 3.16846 13.1751 3.0094 12.9794 3.0094Z" fill="#D6DDE0"/>
</svg>
