<svg width="67" height="30" viewBox="0 0 67 30" fill="none" xmlns="http://www.w3.org/2000/svg">
<g clip-path="url(#clip0_275_458)">
<path d="M6.39413 23.0846C4.25933 23.0846 2.64797 22.5613 1.59083 21.5251C0.533699 20.4888 0 18.9498 0 16.9491V7.26377C0 6.89442 0.092371 6.7713 0.123161 6.74052C0.174479 6.68922 0.318167 6.6174 0.687651 6.6174H2.45296C2.83271 6.6174 2.95587 6.69948 2.98666 6.74052C3.01745 6.7713 3.09956 6.89442 3.09956 7.27403V16.826C3.09956 19.1037 4.41328 20.3041 6.9073 20.3041C8.04654 20.3041 9.06262 20.1708 9.94528 19.904L9.98633 19.8835C10.3353 19.7296 10.52 19.432 10.52 19.0524V7.25351C10.52 6.88416 10.6124 6.76104 10.6432 6.73026C10.6945 6.67896 10.8382 6.60714 11.1974 6.60714H12.9319C13.3014 6.60714 13.4451 6.68922 13.4964 6.73026C13.5375 6.76104 13.6196 6.88416 13.6196 7.25351V20.458C13.6196 21.0121 13.517 21.2788 13.4348 21.4019C13.3527 21.5251 13.1269 21.7303 12.5625 21.9662C10.6842 22.7152 8.61103 23.0846 6.39413 23.0846Z" fill="#FF716E"/>
<path d="M33.4282 23.2492C33.3769 23.2492 33.3256 23.2492 33.2743 23.2492C33.0074 23.2389 32.7303 23.1979 32.4737 23.1363L32.3916 23.1158C32.2377 23.0748 32.0529 23.0337 31.9914 22.9517C31.899 22.8183 31.8887 22.5926 31.8887 22.4284V11.5837C31.8887 10.6808 31.16 9.94207 30.2466 9.94207H29.6513C29.2818 9.94207 29.1586 9.84973 29.1278 9.81895C29.0765 9.76765 29.0047 9.62402 29.0047 9.26492V7.78749C29.0047 7.40787 29.0868 7.28475 29.1176 7.25397C29.1484 7.22319 29.2715 7.13086 29.6513 7.13086H31.1908C31.5706 7.13086 31.8887 6.82306 31.8887 6.43318C31.8887 2.11376 34.1877 0.0104713 38.9294 0.0104713H40.2534C40.3766 0.0104713 40.5203 0.102811 40.5716 0.21567C40.8898 0.882564 40.8487 1.9496 40.4895 2.67805C40.4279 2.80117 40.3971 2.84221 40.3458 2.87299C40.3458 2.87299 40.2329 2.87299 40.2226 2.87299C40.2021 2.87299 40.2534 2.88325 40.2329 2.87299C40.1713 2.86273 40.0789 2.85247 39.9968 2.85247H38.9192C37.5849 2.85247 36.5894 3.13975 35.953 3.70404C35.3167 4.26834 34.9883 5.19173 34.9883 6.43318C34.9883 6.8128 35.2962 7.13086 35.6862 7.13086H37.8005C38.2213 7.13086 38.3444 7.22319 38.365 7.25397C38.3957 7.28475 38.4779 7.40787 38.4779 7.78749V9.26492C38.4779 9.63428 38.3957 9.77792 38.3547 9.82922C38.3239 9.87025 38.1905 9.95233 37.8005 9.95233H36.6304C35.7272 9.95233 34.9883 10.6808 34.9883 11.5939V22.4489C34.9883 22.8798 34.8549 23.0132 34.6599 23.0748C34.2596 23.1876 33.849 23.2492 33.4282 23.2492Z" fill="#FF716E"/>
<path d="M63.4379 19.7399C62.9863 19.7399 62.5142 19.6373 61.9805 19.4218C60.3178 18.7755 59.5173 16.8363 59.0657 15.4307C59.0041 15.2255 58.9322 15.0203 58.8707 14.8151C58.5628 13.8507 58.2446 12.8452 57.7212 11.9526C56.8693 10.4854 55.5864 9.25425 54.1187 8.48476C53.5645 8.18722 52.9487 7.95124 52.261 7.76656C51.9942 7.705 51.6349 7.62292 51.2552 7.57162L51.1731 7.56136C50.896 7.52032 50.5983 7.48955 50.3417 7.57162L50.2391 7.28435C50.5675 7.17149 50.9062 7.21253 51.2141 7.25357L51.2962 7.26383C51.6862 7.30487 52.0557 7.39721 52.3431 7.45877C53.0513 7.64344 53.6979 7.89994 54.2726 8.19748C55.7916 8.99775 57.1156 10.27 57.9983 11.7885C58.532 12.7118 58.8604 13.7276 59.1683 14.7125C59.2299 14.9177 59.3017 15.1229 59.3633 15.3179C59.7944 16.6619 60.5539 18.519 62.0934 19.1243C62.6476 19.35 63.0889 19.4423 63.5405 19.4218C64.1768 19.4013 64.7208 19.1346 65.1724 18.6421C66.0859 17.6366 66.4246 15.8411 66.3527 14.5176C66.2295 12.0962 64.69 9.85959 62.5244 8.93619L62.6476 8.64892C64.9158 9.61335 66.5272 11.9629 66.6606 14.4971C66.7325 15.8924 66.3732 17.7802 65.3982 18.8473C64.8953 19.4013 64.2692 19.6988 63.5508 19.7296C63.5097 19.7399 63.4687 19.7399 63.4379 19.7399Z" fill="#FF716E"/>
<path d="M47.8589 9.07992L47.3971 7.81795L50.1887 6.45338L50.7738 7.72561L47.8589 9.07992ZM47.7768 7.97185L48.0334 8.65926L50.3632 7.57171L50.0451 6.87404L47.7768 7.97185Z" fill="#FF716E"/>
<path d="M62.2786 9.59265L59.8565 7.633L60.6057 6.50441L63.1305 8.49483L62.2786 9.59265ZM60.2773 7.57144L62.2273 9.16173L62.6892 8.55639L60.6776 6.95585L60.2773 7.57144Z" fill="#FF716E"/>
<path d="M44.4814 0H43.0343C42.5724 0 42.2029 0.369357 42.2029 0.831053V22.4077C42.2029 23.013 42.829 23.1669 43.3114 23.2387C43.9375 23.3311 45.3128 23.3003 45.3128 22.4077V0.831053C45.323 0.369357 44.9433 0 44.4814 0Z" fill="#FF716E"/>
<path d="M19.142 6.72034H16.8224C16.6069 6.72034 16.4222 6.89475 16.4222 7.12047V29.1383C16.4222 29.7436 17.0482 29.8975 17.5306 29.9693C18.1567 30.0617 19.532 30.0309 19.532 29.1383V7.11021C19.5422 6.89475 19.3678 6.72034 19.142 6.72034Z" fill="#FF716E"/>
<path d="M20.1374 21.823C21.5435 20.9714 22.9701 20.1506 24.3454 19.2477C25.0023 18.8168 25.6386 18.3757 26.2544 17.9037C26.8702 17.4317 27.5168 16.9598 28.0197 16.3647C29.1692 14.9899 29.4258 13.1021 28.0813 11.7477C27.0755 10.732 25.577 10.1575 24.3352 9.50083C22.6828 8.61847 21.0406 7.74638 19.3882 6.86403C18.7313 6.51519 17.8795 6.69987 17.4997 7.3565C17.1302 7.98236 17.3355 8.89549 17.9924 9.24433C19.6448 10.1267 21.2869 10.9988 22.9393 11.8811C23.6886 12.2813 24.4378 12.6711 25.187 13.0815C25.3205 13.1534 25.4539 13.2252 25.577 13.3073C25.6284 13.338 26.0286 13.6048 25.9055 13.5125C26.0184 13.5945 26.121 13.6971 26.2134 13.81C26.1415 13.7074 26.1518 13.7279 26.2442 13.8613C26.2031 13.7382 26.2134 13.7484 26.2647 13.9126C26.2544 13.7997 26.2544 14.0255 26.2442 14.0357C26.2236 14.128 26.1826 14.2204 26.0902 14.364C25.9465 14.5795 25.6694 14.836 25.4231 15.0514C24.8175 15.5747 24.1607 16.0467 23.4936 16.4981C21.954 17.5446 20.3324 18.4783 18.7416 19.4324C17.2226 20.3558 18.6082 22.7464 20.1374 21.823Z" fill="#FF716E"/>
<path d="M62.1354 19.3605C62.0327 18.6628 62.6178 18.0472 63.3157 18.1395C63.8904 18.2113 64.6089 18.0369 65.2965 17.1648C66.2305 15.9747 66.7231 16.9391 66.7026 17.6676C66.7026 17.9241 66.7026 18.1395 66.6513 18.3242C66.4666 18.9808 65.5121 20.7558 62.9565 20.2838C62.5254 20.2018 62.197 19.8529 62.1251 19.422C62.1456 19.4015 62.1456 19.381 62.1354 19.3605Z" fill="#FF716E"/>
<path d="M49.0896 6.02285C48.9151 6.02285 48.7098 6.08441 48.484 6.20753C47.8374 6.55637 47.6938 6.89495 47.663 7.06937C47.6527 7.14119 47.6732 7.213 47.6938 7.2643C47.7245 7.34638 47.7759 7.45924 47.8272 7.60288L49.7875 6.64871C49.7054 6.47429 49.6541 6.37169 49.6541 6.36143C49.6335 6.33065 49.4693 6.02285 49.0896 6.02285Z" fill="#FF716E"/>
<path d="M63.1705 7.79768C63.3758 7.613 63.3963 7.27442 63.2218 7.06923C63.1192 6.95637 62.9858 6.82299 62.6368 6.57675C62.2776 6.32025 61.9594 6.17661 61.7028 6.17661C61.3949 6.17661 61.2615 6.37155 61.2512 6.40233L61.2307 6.43311L60.9536 6.78195L60.9639 6.79221L62.7702 8.20808C62.9036 8.05418 63.0371 7.9208 63.1705 7.79768Z" fill="#FF716E"/>
<path d="M51.7687 24.4494C51.7687 24.5315 51.6866 26.1218 51.6866 26.1628L51.5634 28.9843C51.5531 29.2203 51.6866 29.4357 51.9021 29.5178C52.2921 29.682 52.8874 29.8666 53.5135 29.8666C53.9958 29.8666 54.4269 29.7538 54.7964 29.5281C54.9606 29.4255 55.0632 29.2408 55.053 29.0459C55.053 28.9227 55.0427 28.7688 55.0324 28.5944C54.9401 26.6655 54.7143 22.1512 56.5412 16.9904C56.6951 16.5493 57.0441 15.8721 57.3007 15.4822C58.6862 13.4097 60.4721 10.8448 61.9397 9.11082L60.1436 7.77703L55.8843 13.0917C55.8638 13.1122 55.8535 13.1327 55.833 13.1532C55.6688 13.3379 55.0735 13.9227 54.3037 13.9227C53.534 13.9227 52.8874 13.3584 52.3845 12.2298C51.6866 10.6601 50.9065 9.00822 50.3626 7.85911L48.2688 8.81329C49.5415 12.3017 52.1279 20.2941 51.7687 24.4494Z" fill="#FF716E"/>
</g>
<defs>
<clipPath id="clip0_275_458">
<rect width="66.7021" height="30" fill="white"/>
</clipPath>
</defs>
</svg>
