<svg width="17" height="10" viewBox="0 0 17 10" fill="none" xmlns="http://www.w3.org/2000/svg">
<path d="M16.3574 8.14269C16.3144 8.07068 16.0484 7.49264 14.7683 6.30455C13.4282 5.06046 13.6082 5.26247 15.2223 3.11132C16.2054 1.80122 16.5984 1.00116 16.4754 0.659134C16.3584 0.333109 15.6353 0.419116 15.6353 0.419116L13.2312 0.433117C13.2312 0.433117 13.0531 0.409115 12.9201 0.488121C12.7911 0.566127 12.7081 0.74614 12.7081 0.74614C12.7081 0.74614 12.3271 1.76021 11.8191 2.62228C10.748 4.44141 10.3189 4.53742 10.1439 4.42441C9.7369 4.16139 9.83891 3.36633 9.83891 2.80229C9.83891 1.03916 10.1059 0.304107 9.31787 0.114093C9.05585 0.0510885 8.86384 0.00908538 8.19479 0.00208487C7.33672 -0.0069158 6.60967 0.00508509 6.19864 0.2061C5.92462 0.34011 5.71361 0.639132 5.84262 0.656134C6.00163 0.677135 6.36165 0.753141 6.55267 1.01316C6.79969 1.34818 6.79068 2.10224 6.79068 2.10224C6.79068 2.10224 6.9327 4.17739 6.45966 4.43541C6.13464 4.61243 5.6896 4.2514 4.73453 2.60028C4.2455 1.75521 3.87547 0.820146 3.87547 0.820146C3.87547 0.820146 3.80447 0.646133 3.67746 0.553126C3.52345 0.440117 3.30743 0.404115 3.30743 0.404115L1.02126 0.418116C1.02126 0.418116 0.678236 0.428117 0.552227 0.577128C0.440219 0.710138 0.543226 0.984157 0.543226 0.984157C0.543226 0.984157 2.33336 5.17147 4.35951 7.28262C6.21864 9.21777 8.3288 9.09076 8.3288 9.09076H9.28487C9.28487 9.09076 9.57389 9.05875 9.7209 8.89974C9.85691 8.75373 9.85191 8.47971 9.85191 8.47971C9.85191 8.47971 9.83291 7.19662 10.429 7.0076C11.016 6.82159 11.7701 8.24769 12.5691 8.79674C13.1732 9.21177 13.6322 9.12076 13.6322 9.12076L15.7693 9.09076C15.7693 9.09076 16.8874 9.02175 16.3574 8.14269Z" fill="#D6DDE0"/>
</svg>
