<svg width="28" height="28" viewBox="0 0 28 28" fill="none" xmlns="http://www.w3.org/2000/svg">
<g clip-path="url(#clip0_2_2304)">
<path d="M27.6835 26.1318L19.7838 18.232C23.383 13.8529 23.1381 7.35229 19.0482 3.26243C14.6973 -1.08845 7.61795 -1.08845 3.26707 3.26243C-1.08381 7.61331 -1.08381 14.6927 3.26707 19.0435C7.35583 23.1323 13.8557 23.3799 18.2367 19.7791L26.1364 27.6789C26.5636 28.1061 27.2562 28.1061 27.6835 27.6789C28.1107 27.2516 28.1107 26.559 27.6835 26.1318ZM17.5011 17.4964C14.0033 20.9942 8.31199 20.9942 4.81418 17.4964C1.31637 13.9986 1.31637 8.3073 4.81418 4.80948C8.31188 1.31184 14.0032 1.31156 17.5011 4.80948C20.9989 8.3073 20.9989 13.9986 17.5011 17.4964Z" fill="#777B7C"/>
<path d="M16.5117 10.0602H12.2493V5.79783C12.2493 5.19364 11.7595 4.70386 11.1554 4.70386C10.5512 4.70386 10.0614 5.19364 10.0614 5.79783V10.0602H5.79905C5.19486 10.0602 4.70508 10.55 4.70508 11.1541C4.70508 11.7583 5.19486 12.2481 5.79905 12.2481H10.0614V16.5104C10.0614 17.1146 10.5512 17.6044 11.1554 17.6044C11.7595 17.6044 12.2493 17.1146 12.2493 16.5104V12.2481H16.5117C17.1159 12.2481 17.6056 11.7583 17.6056 11.1541C17.6056 10.55 17.1159 10.0602 16.5117 10.0602Z" fill="#777B7C"/>
</g>
<defs>
<clipPath id="clip0_2_2304">
<rect width="28" height="28" fill="white"/>
</clipPath>
</defs>
</svg>
