<svg width="109" height="35" viewBox="0 0 109 35" fill="none" xmlns="http://www.w3.org/2000/svg">
<path d="M0 15.0624C0.138174 14.6395 0.115145 14.2166 0.184232 13.7936C0.368465 12.5719 0.667842 11.3736 1.05934 10.1988C1.10539 10.0578 1.17448 10.0108 1.33568 10.0343C1.589 10.0813 1.84232 10.0578 2.07261 9.82286C2.32593 9.54091 2.74046 9.54091 3.03983 9.77587C3.36224 10.0108 3.45436 10.4338 3.27012 10.7862C2.8556 11.6555 3.38527 12.5249 4.30643 12.5249C4.51369 12.5249 4.60581 12.4544 4.72095 12.2664C4.97427 11.773 5.52697 11.5616 6.03361 11.726C6.51722 11.867 6.88568 12.3369 6.83962 12.8773C6.79357 13.4412 7.09294 13.7702 7.50747 14.0286C8.06016 14.381 8.61286 14.334 9.21162 14.0051C9.07344 14.6395 8.9583 15.2504 8.93527 15.8848C8.77406 20.02 11.3994 23.6149 15.3373 24.6722C19.7819 25.847 24.5259 22.957 25.6083 18.3753C25.7695 17.6704 25.8846 16.9656 25.8616 16.2372C25.8616 16.0492 25.9077 15.9788 26.0919 16.0022C28.9014 16.0022 31.711 16.0022 34.5205 16.0022C34.7278 16.0022 34.7508 16.0727 34.7508 16.2607C34.7508 21.3358 33.0467 25.706 29.4081 29.2069C26.8979 31.6034 23.9272 33.0602 20.5419 33.6945C19.8971 33.812 19.2292 33.9295 18.5614 33.953C18.4923 33.953 18.4463 33.9295 18.4002 34C17.7093 34 16.9954 34 16.3046 34C16.2355 33.9295 16.1434 33.953 16.0743 33.953C15.061 33.906 14.0707 33.7415 13.0805 33.4596C8.79709 32.3318 5.43485 29.8647 2.94772 26.1289C1.45083 23.8968 0.552697 21.4298 0.184232 18.7513C0.115145 18.3283 0.138174 17.8819 0 17.459C0 16.6366 0 15.8613 0 15.0624ZM5.41182 16.4017C5.41182 17.0596 5.89543 17.5765 6.54025 17.6C7.18506 17.6 7.71473 17.1065 7.71473 16.4722C7.71473 15.8143 7.20809 15.2739 6.56328 15.2504C5.94149 15.2504 5.43485 15.7438 5.41182 16.4017ZM1.93444 15.7438C2.32593 15.7438 2.64834 15.4149 2.64834 15.0389C2.64834 14.663 2.34896 14.3575 1.95747 14.3575C1.56597 14.3575 1.24357 14.663 1.24357 15.0624C1.24357 15.4383 1.54295 15.7438 1.93444 15.7438ZM3.31618 17.0126C3.08589 17.0126 2.8556 17.2475 2.8556 17.4825C2.8556 17.7174 3.06286 17.9524 3.31618 17.9524C3.54647 17.9524 3.77676 17.7409 3.77676 17.506C3.75373 17.2475 3.54647 17.0126 3.31618 17.0126Z" fill="white"/>
<path d="M50.6409 16.0728C50.664 16.9891 50.5719 17.8349 50.2725 18.6573C49.8349 19.8791 49.0059 20.6544 47.8084 21.0304C46.5187 21.4063 45.2061 21.4063 43.9165 21.0773C42.4887 20.7014 41.5675 19.7851 41.199 18.3283C40.8075 16.8951 40.7845 15.4384 41.153 14.0051C41.5445 12.4544 42.5117 11.4911 44.0546 11.1151C45.2521 10.8332 46.4497 10.8332 47.6472 11.1386C49.1901 11.5381 50.1113 12.5954 50.4797 14.1461C50.6179 14.7805 50.687 15.4384 50.6409 16.0728ZM48.4302 16.0728C48.4532 15.5793 48.4302 15.1094 48.315 14.616C48.1077 13.7702 47.7163 13.0653 46.8642 12.7364C46.4727 12.5719 46.0351 12.5719 45.6206 12.5719C44.4692 12.6189 43.7322 13.1828 43.3868 14.3106C43.0644 15.3679 43.1104 16.4252 43.3177 17.506C43.548 18.6573 44.1698 19.4092 45.3673 19.5266C46.703 19.6676 47.8314 19.2212 48.269 17.7175C48.4071 17.2006 48.4532 16.6601 48.4302 16.0728Z" fill="white"/>
<path d="M91.8627 16.1197C91.8627 17.6704 91.8627 19.2447 91.8627 20.7954C91.8627 21.0303 91.7936 21.1008 91.5633 21.0773C91.0797 21.0538 90.5731 21.0538 90.0895 21.0773C89.8592 21.0773 89.8131 21.0068 89.8131 20.7719C89.8131 18.2343 89.8131 15.6968 89.8361 13.1593C89.8361 12.8538 89.744 12.8068 89.4907 12.8068C88.4544 12.8303 87.4181 12.8303 86.3818 12.8068C86.1285 12.8068 86.0594 12.8538 86.0594 13.1358C86.0824 15.6733 86.0594 18.2108 86.0824 20.7484C86.0824 21.0303 86.0133 21.1008 85.737 21.0773C85.2534 21.0538 84.7467 21.0538 84.2631 21.0773C84.1019 21.0773 84.0328 21.0538 84.0328 20.8659C84.0328 17.6704 84.0328 14.475 84.0328 11.2796C84.0328 11.1151 84.0789 11.0681 84.2401 11.0681C86.7272 11.0681 89.1913 11.0681 91.6785 11.0681C91.8857 11.0681 91.9088 11.1621 91.9088 11.3266C91.8627 12.9478 91.8627 14.522 91.8627 16.1197Z" fill="white"/>
<path d="M51.8844 18.7277C51.8844 17.1535 51.8844 15.5793 51.8844 14.0286C51.8844 13.7936 51.9304 13.7231 52.1607 13.7231C53.3122 13.7466 54.4867 13.6996 55.6381 13.7466C57.3653 13.7936 58.6089 14.6395 58.9543 16.5191C59.2076 17.9289 59.0234 19.2446 57.941 20.3019C57.4804 20.7719 56.8817 20.9598 56.2599 21.0303C55.523 21.1243 54.763 21.0773 54.0031 21.0773C53.8188 21.0773 53.7497 21.1243 53.7728 21.3123C53.7958 22.0406 53.7728 22.7455 53.7728 23.4739C53.7728 23.6618 53.7267 23.7323 53.5425 23.7088C53.0589 23.6853 52.5983 23.6853 52.1147 23.7088C51.9074 23.7088 51.8614 23.6618 51.8614 23.4504C51.8844 21.8997 51.8844 20.3254 51.8844 18.7277ZM53.7728 17.412C53.7728 18.0464 53.7728 18.6572 53.7728 19.2916C53.7728 19.4326 53.7958 19.5266 53.98 19.5031C54.4176 19.4796 54.8551 19.5266 55.3157 19.4796C56.2369 19.4091 56.7665 19.1037 56.9968 18.2108C57.112 17.7644 57.112 17.318 57.0659 16.8716C56.9968 16.1432 56.7205 15.5558 55.9145 15.3678C55.2466 15.2269 54.5788 15.2974 53.9109 15.2739C53.7267 15.2739 53.7958 15.4148 53.7958 15.5088C53.7728 16.1667 53.7728 16.7776 53.7728 17.412Z" fill="white"/>
<path d="M93.5901 18.7043C93.5901 17.1535 93.5901 15.5793 93.5901 14.0286C93.5901 13.7937 93.6591 13.7467 93.8664 13.7467C95.0179 13.7702 96.1693 13.7467 97.3208 13.7467C98.9328 13.7702 100.084 14.569 100.522 15.9788C100.936 17.3415 100.867 18.6573 100.038 19.8556C99.5315 20.5839 98.8176 20.9364 97.9656 21.0303C97.2286 21.1243 96.4917 21.0773 95.7548 21.0773C95.5245 21.0773 95.4784 21.1478 95.4784 21.3593C95.5015 22.0642 95.4784 22.769 95.4784 23.4504C95.4784 23.6854 95.4093 23.7324 95.2021 23.7324C94.7415 23.7089 94.2809 23.7089 93.8204 23.7324C93.6131 23.7324 93.567 23.6619 93.567 23.4739C93.5901 21.8762 93.5901 20.2785 93.5901 18.7043ZM95.4784 17.412C95.4784 18.0464 95.4784 18.6573 95.4784 19.2917C95.4784 19.4326 95.4784 19.5266 95.6627 19.5266C96.1233 19.5031 96.5608 19.5266 97.0214 19.5266C97.8274 19.5031 98.4031 19.1037 98.6104 18.4458C98.7716 17.9289 98.7716 17.412 98.7255 16.8951C98.6564 16.1432 98.3571 15.5793 97.551 15.4149C96.9062 15.2739 96.2384 15.3444 95.5936 15.3444C95.4093 15.3444 95.4554 15.4619 95.4554 15.5558C95.4784 16.1667 95.4784 16.7776 95.4784 17.412Z" fill="white"/>
<path d="M66.8993 17.412C66.8993 15.5558 67.8205 14.1931 69.4786 13.7701C70.9524 13.3942 72.3802 13.5352 73.5317 14.71C74.3607 15.5558 74.591 16.6366 74.4989 17.7879C74.4529 18.5398 74.2456 19.2446 73.762 19.832C73.1402 20.6074 72.3342 21.0068 71.367 21.1478C70.5379 21.2653 69.7549 21.1948 68.995 20.8659C67.6593 20.3255 66.8993 19.0332 66.8993 17.412ZM72.5414 17.412C72.5414 17.036 72.4724 16.6601 72.3572 16.3077C72.1039 15.6028 71.5051 15.1799 70.7452 15.1799C69.9852 15.1564 69.3634 15.5323 69.0871 16.2372C68.7877 16.9656 68.8107 17.6939 69.018 18.4458C69.4555 19.926 71.3439 19.973 72.0348 19.0567C72.4263 18.5633 72.5184 17.9994 72.5414 17.412Z" fill="white"/>
<path d="M108.996 17.2005C108.996 18.9862 108.421 20.1845 106.993 20.8659C105.473 21.5707 103.469 21.2418 102.41 20.1375C101.581 19.2682 101.328 18.1638 101.42 16.9891C101.489 16.1197 101.788 15.3209 102.41 14.6865C103.331 13.7701 104.46 13.5352 105.703 13.6292C106.417 13.6762 107.108 13.9111 107.684 14.381C108.651 15.1564 109.042 16.1902 108.996 17.2005ZM107.039 17.2475C107.039 17.0126 107.016 16.8011 106.947 16.5661C106.74 15.7438 106.118 15.2269 105.289 15.2034C104.437 15.1564 103.815 15.6028 103.539 16.4252C103.354 16.9891 103.354 17.553 103.446 18.1169C103.585 18.9627 104.206 19.5736 104.989 19.6676C105.934 19.7616 106.624 19.3151 106.924 18.4223C107.039 18.0229 107.062 17.6234 107.039 17.2475Z" fill="white"/>
<path d="M82.1676 17.412C82.1676 18.5633 82.1676 19.6911 82.1676 20.8424C82.1676 21.0538 82.1216 21.1008 81.9143 21.1008C81.4537 21.0773 80.9931 21.0773 80.5325 21.1008C80.3023 21.1008 80.2792 21.0303 80.2792 20.8424C80.2792 19.1272 80.2792 17.3885 80.2792 15.6733C80.2792 15.4383 80.2332 15.3679 80.0029 15.3679C79.5423 15.3913 79.0587 15.3678 78.5751 15.3913C77.6539 15.3913 77.4927 15.6733 77.4697 16.5896C77.4466 17.9994 77.4466 19.3856 77.4697 20.7954C77.4697 21.0538 77.4236 21.1478 77.1473 21.1478C76.7328 21.1243 76.2952 21.1243 75.8807 21.1478C75.6734 21.1478 75.6043 21.1243 75.6043 20.8893C75.6274 19.3151 75.5813 17.7174 75.6274 16.1432C75.6734 14.569 76.4334 14.0051 77.723 13.8641C79.1278 13.6996 80.5556 13.8171 81.9604 13.7936C82.1906 13.7936 82.1446 13.9111 82.1446 14.0521C82.1676 15.1329 82.1676 16.2842 82.1676 17.412Z" fill="white"/>
<path d="M22.154 11.0446C22.1079 9.39993 23.5127 7.89621 25.2169 7.89621C26.9901 7.89621 28.3718 9.30595 28.3718 11.0681C28.3718 12.7598 26.9671 14.1931 25.309 14.2166C23.5357 14.2635 22.0849 12.7128 22.154 11.0446Z" fill="white"/>
<path d="M63.9978 16.6601C64.6426 16.6601 65.2644 16.6601 65.9092 16.6601C66.0934 16.6601 66.1625 16.7071 66.1625 16.8951C66.1395 17.224 66.1395 17.5765 66.1625 17.9054C66.1625 18.1169 66.0934 18.1874 65.8862 18.1874C64.6426 18.1874 63.3991 18.1874 62.1555 18.1874C61.8791 18.1874 61.8561 18.2813 61.9022 18.5163C62.0634 19.2682 62.2706 19.4561 63.0076 19.5266C63.9748 19.6441 64.942 19.5501 65.9092 19.5736C66.1395 19.5736 66.1856 19.6441 66.1856 19.8556C66.1625 20.1845 66.1625 20.5369 66.1856 20.8659C66.1856 21.0304 66.1625 21.1008 65.9783 21.1008C64.8499 21.0773 63.7215 21.1713 62.593 21.0303C60.981 20.8189 60.1059 19.9026 59.8756 18.2579C59.7605 17.4355 59.8065 16.6366 60.0598 15.8378C60.4513 14.522 61.4876 13.9581 62.6391 13.8172C63.7445 13.6762 64.8729 13.7937 66.0013 13.7467C66.1856 13.7467 66.2086 13.8172 66.2086 13.9816C66.2086 14.3106 66.1856 14.663 66.2086 14.9919C66.2086 15.2034 66.1625 15.2739 65.9322 15.2739C65.1953 15.2504 64.4584 15.2739 63.7215 15.2739C63.376 15.2739 63.0306 15.3209 62.6851 15.3914C62.2246 15.5088 61.8791 16.0727 61.9252 16.5427C61.9482 16.7071 62.0403 16.6836 62.1325 16.6836C62.7312 16.6601 63.353 16.6601 63.9978 16.6601Z" fill="white"/>
<path d="M8.52082 9.70537C9.41895 9.70537 10.1328 10.4102 10.1328 11.3266C10.1328 12.2429 9.39592 12.9948 8.49779 12.9713C7.62268 12.9478 6.90878 12.2194 6.90878 11.3266C6.90878 10.4102 7.62268 9.70537 8.52082 9.70537Z" fill="white"/>
<path d="M3.73067 5.94604C4.6288 5.94604 5.3427 6.67441 5.3427 7.56725C5.3427 8.46009 4.60577 9.23545 3.73067 9.21196C2.85557 9.21196 2.14166 8.46009 2.11864 7.56725C2.11864 6.67441 2.85557 5.94604 3.73067 5.94604Z" fill="white"/>
<path d="M78.7132 26.0349C78.552 26.4578 78.3908 26.8808 78.2526 27.3272C78.1835 27.5152 78.0684 27.5386 77.9302 27.5152C77.769 27.4917 77.5618 27.6091 77.4697 27.3272C77.3315 26.8808 77.1472 26.4343 76.963 25.9879C76.94 26.4109 76.9169 26.8103 76.963 27.2097C76.986 27.3742 77.0091 27.5386 76.7557 27.4917C76.5945 27.4682 76.3182 27.6326 76.3412 27.2332C76.3643 26.5753 76.3643 25.9409 76.3412 25.2831C76.3412 25.0481 76.4103 25.0011 76.6176 25.0011C77.2163 25.0011 77.2163 25.0011 77.4236 25.5885C77.5387 25.9409 77.6769 26.2699 77.7921 26.6223C77.7921 26.6458 77.8151 26.6458 77.8381 26.6928C77.9993 26.4813 78.0223 26.2229 78.1145 25.9879C78.2066 25.753 78.2987 25.4945 78.3678 25.2596C78.4138 25.0716 78.506 25.0246 78.6902 25.0246C79.312 25.0246 79.312 25.0246 79.312 25.659C79.312 26.1524 79.312 26.6693 79.312 27.1627C79.312 27.5152 79.312 27.5152 78.8744 27.4917C78.575 27.4917 78.7132 27.2802 78.6902 27.1392C78.6902 26.7633 78.6902 26.3874 78.7132 26.0349Z" fill="white"/>
<path d="M59.8525 26.4108C59.8525 26.7868 59.8525 27.1627 59.8525 27.5387C59.8295 28.1026 59.5531 28.3845 59.0004 28.3845C58.632 28.3845 58.2635 28.3845 57.895 28.3845C57.6878 28.3845 57.6878 28.2905 57.6878 28.126C57.6878 27.9616 57.7108 27.8676 57.895 27.8676C58.2175 27.8911 58.5399 27.8676 58.8392 27.8676C58.9544 27.8676 59.0926 27.8441 59.1616 27.7501C59.2077 27.6796 59.2307 27.6091 59.2077 27.5387C59.1847 27.4682 59.1156 27.4917 59.0465 27.4917C58.7701 27.4682 58.5168 27.5152 58.2405 27.4447C57.849 27.3507 57.6878 27.1627 57.6648 26.7398C57.6417 26.2229 57.6417 25.706 57.6417 25.1656C57.6417 24.8836 57.849 25.0246 57.9872 25.0011C58.1023 24.9776 58.2865 24.9306 58.2865 25.1891C58.2635 25.612 58.2865 26.0349 58.2865 26.4813C58.2865 26.8573 58.3556 26.9278 58.7241 26.9513C58.8162 26.9513 58.9083 26.9513 59.0004 26.9513C59.1847 26.9748 59.2307 26.8808 59.2307 26.7163C59.2307 26.2229 59.2538 25.7295 59.2307 25.2361C59.2077 24.9306 59.415 25.0011 59.5762 25.0011C59.7604 24.9776 59.8986 25.0011 59.8755 25.2596C59.8525 25.6355 59.8525 26.0349 59.8525 26.4108Z" fill="white"/>
<path d="M54.8783 26.7163C54.8783 26.2229 54.8783 25.7295 54.8783 25.2361C54.8783 25.0481 54.9474 25.0246 55.1086 25.0246C55.431 25.0481 55.7764 25.0246 56.0988 25.0246C56.9279 25.0246 57.4345 25.659 57.2963 26.5048C57.1812 27.1392 56.7897 27.4916 56.1219 27.4916C55.5231 27.4916 55.5001 27.4916 55.5231 28.1025C55.5231 28.3845 55.408 28.3845 55.2007 28.361C55.0165 28.361 54.8553 28.3845 54.8783 28.1025C54.9013 27.6561 54.8783 27.1862 54.8783 26.7163ZM55.5001 26.2464C55.5001 26.4343 55.5001 26.6223 55.5001 26.8103C55.5001 26.9043 55.5001 26.9747 55.6152 26.9747C56.26 26.9982 56.6285 26.9043 56.6055 26.1759C56.5824 25.6825 56.4212 25.5415 55.7764 25.5415C55.2468 25.518 55.5692 25.9174 55.4771 26.1054C55.5001 26.1524 55.5001 26.1994 55.5001 26.2464Z" fill="white"/>
<path d="M84.102 27.4917C83.8487 27.4917 83.5954 27.4917 83.342 27.4917C82.9045 27.4682 82.6512 27.2567 82.6051 26.8573C82.5591 26.4109 82.7663 26.1524 83.1808 26.0349C83.5032 25.9409 83.8257 26.0114 84.1711 25.9879C84.2632 25.9879 84.4014 26.0584 84.4244 25.8939C84.4474 25.753 84.3783 25.612 84.2402 25.565C84.125 25.5415 84.0099 25.518 83.9178 25.518C83.6184 25.518 83.319 25.4945 83.0196 25.518C82.8124 25.5415 82.7893 25.424 82.7893 25.2596C82.7893 25.1186 82.7894 25.0011 82.9966 25.0011C83.4572 25.0246 83.8947 25.0011 84.3553 25.0246C84.8159 25.0481 85.0922 25.3535 85.0922 25.8235C85.0922 26.2934 85.0922 26.7868 85.0922 27.2567C85.0922 27.4212 85.0462 27.4917 84.885 27.4682C84.6086 27.4917 84.3553 27.4917 84.102 27.4917ZM83.8487 26.9982C83.9868 26.9982 84.125 26.9982 84.2862 26.9982C84.4474 26.9982 84.4474 26.8808 84.4244 26.7868C84.4014 26.6693 84.4935 26.5048 84.2862 26.5048C84.0099 26.5048 83.7335 26.4813 83.4572 26.5048C83.319 26.5048 83.2499 26.6223 83.2499 26.7633C83.2499 26.9278 83.319 26.9982 83.4802 26.9982C83.6184 26.9982 83.7335 26.9982 83.8487 26.9982Z" fill="white"/>
<path d="M67.429 27.4916C67.1757 27.4916 66.9224 27.4916 66.669 27.4916C66.2545 27.4681 66.0012 27.2567 65.9551 26.8573C65.9091 26.4108 66.0933 26.1524 66.5078 26.0349C66.8302 25.9409 67.1526 26.0114 67.4981 25.9879C67.5902 25.9879 67.7514 26.0584 67.7514 25.8939C67.7744 25.7295 67.6823 25.612 67.5211 25.565C67.3829 25.5415 67.2448 25.5415 67.1296 25.5415C66.8763 25.5415 66.623 25.518 66.3697 25.5415C66.1624 25.565 66.1163 25.471 66.1394 25.283C66.1394 25.1186 66.1624 25.0246 66.3697 25.0246C66.8072 25.0481 67.2448 25.0246 67.6823 25.0481C68.1429 25.0716 68.4193 25.377 68.4423 25.8704C68.4423 26.3404 68.4423 26.8103 68.4423 27.2802C68.4423 27.4681 68.3962 27.5151 68.212 27.5151C67.9356 27.4916 67.6823 27.4916 67.429 27.4916ZM67.2217 26.9982C67.3599 26.9982 67.4981 26.9982 67.6593 26.9982C67.8205 26.9982 67.7975 26.8808 67.7975 26.7868C67.7975 26.6928 67.8666 26.5283 67.6823 26.5048C67.406 26.4813 67.1066 26.4813 66.8302 26.5048C66.6921 26.5048 66.623 26.6223 66.623 26.7633C66.623 26.9277 66.7151 26.9747 66.8533 26.9747C66.9684 26.9982 67.0836 26.9982 67.2217 26.9982Z" fill="white"/>
<path d="M9.44197 8.36611C9.44197 9.00049 8.93533 9.5174 8.31354 9.5174C7.69176 9.5174 7.16209 8.977 7.16209 8.34261C7.16209 7.68473 7.66873 7.19133 8.31354 7.19133C8.95836 7.19133 9.44197 7.68473 9.44197 8.36611Z" fill="white"/>
<path d="M10.8005 7.14436C10.8005 6.48648 11.3072 5.94608 11.929 5.96957C12.5507 5.96957 13.0804 6.50997 13.0804 7.14436C13.0804 7.77874 12.5507 8.31915 11.9059 8.31915C11.3072 8.29565 10.8005 7.77874 10.8005 7.14436Z" fill="white"/>
<path d="M89.0073 26.5988C89.3297 26.1054 89.583 25.6825 89.8593 25.2596C89.9745 25.0716 90.5272 24.9306 90.7114 25.0481C90.7805 25.0951 90.7575 25.1656 90.7575 25.2126C90.7575 25.9174 90.7575 26.6458 90.7575 27.3507C90.7575 27.4682 90.7114 27.4917 90.5963 27.5152C90.1127 27.5621 90.1127 27.5622 90.1127 27.0452C90.1127 26.6693 90.1127 26.2934 90.1127 25.8235C89.7903 26.3169 89.5369 26.7398 89.2606 27.1862C89.0764 27.4682 88.777 27.5856 88.4546 27.4917C88.3394 27.4682 88.3625 27.3977 88.3625 27.3272C88.3625 26.6223 88.3625 25.8939 88.3625 25.1891C88.3625 25.0481 88.4085 25.0246 88.5467 25.0246C89.0073 25.0011 89.0073 25.0011 89.0073 25.4475C89.0073 25.8 89.0073 26.1524 89.0073 26.5988Z" fill="white"/>
<path d="M93.0833 25.8234C92.7379 26.3639 92.4385 26.8338 92.1391 27.3037C92.047 27.4447 91.4943 27.5856 91.3562 27.4916C91.2871 27.4447 91.3101 27.3742 91.3101 27.3272C91.3101 26.6223 91.3101 25.9174 91.3101 25.2126C91.3101 25.0716 91.3562 25.0481 91.4943 25.0246C91.9549 25.0011 91.9549 24.9776 91.9549 25.4475C91.9549 25.8 91.9549 26.1524 91.9549 26.5988C92.2543 26.1289 92.5076 25.753 92.7379 25.3535C92.9221 25.0716 93.2906 24.9306 93.613 25.0481C93.7051 25.0716 93.7051 25.1421 93.7051 25.2126C93.7051 25.9174 93.7051 26.6458 93.7051 27.3507C93.7051 27.4682 93.6821 27.5151 93.5439 27.5151C93.0603 27.5621 93.0603 27.5621 93.0603 27.0687C93.0833 26.6693 93.0833 26.2934 93.0833 25.8234Z" fill="white"/>
<path d="M74.637 27.5152C73.8541 27.5152 73.3474 27.0452 73.3474 26.2934C73.3474 25.518 73.831 25.0011 74.591 24.9776C75.374 24.9776 75.9267 25.471 75.9267 26.2464C75.9267 27.0218 75.4431 27.5152 74.637 27.5152ZM74.0153 26.2464C74.0153 26.7398 74.2225 26.9983 74.637 26.9983C75.0055 26.9983 75.2588 26.6928 75.2588 26.2464C75.2588 25.8 75.0055 25.518 74.637 25.4945C74.2686 25.4945 74.0153 25.7765 74.0153 26.2464Z" fill="white"/>
<path d="M63.9056 26.5283C63.9056 26.7868 63.9056 27.0452 63.9056 27.3037C63.9286 27.5386 63.7674 27.5152 63.6523 27.4917C63.5141 27.4682 63.2838 27.6326 63.2838 27.3272C63.2838 26.6223 63.2838 25.9174 63.2838 25.1891C63.2838 25.0481 63.3529 25.0246 63.468 25.0246C63.9056 25.0246 64.3431 25.0246 64.7807 25.0481C65.2182 25.0716 65.4485 25.3065 65.4485 25.753C65.4716 26.2699 65.4485 26.7868 65.4716 27.3272C65.4716 27.6326 65.2413 27.4917 65.1261 27.5152C64.988 27.5386 64.8498 27.5621 64.8498 27.3037C64.8728 26.8573 64.8498 26.4343 64.8498 25.9879C64.8498 25.6355 64.7807 25.565 64.4353 25.565C63.9056 25.565 63.9056 25.565 63.9056 26.1054C63.9056 26.2229 63.9056 26.3874 63.9056 26.5283Z" fill="white"/>
<path d="M71.367 26.1994C71.6433 25.894 71.8736 25.659 72.0809 25.3771C72.2881 25.0951 72.5184 24.9541 72.8639 25.0246C72.956 25.0481 73.0481 25.0246 73.2093 25.0246C72.8869 25.3771 72.6336 25.706 72.3112 25.9645C72.0809 26.1759 72.1269 26.2934 72.3112 26.4814C72.6105 26.7868 72.8869 27.1157 73.1632 27.4212C72.6336 27.5857 72.3572 27.4917 72.0348 27.0923C71.8276 26.8338 71.6203 26.5988 71.367 26.2699C71.367 26.6458 71.3439 26.9513 71.367 27.2567C71.39 27.5622 71.1827 27.4447 71.0446 27.4682C70.9064 27.4682 70.7452 27.5152 70.7452 27.2567C70.7682 26.5753 70.7682 25.894 70.7452 25.2126C70.7452 24.9071 70.9294 25.0011 71.0676 25.0011C71.2058 25.0011 71.39 24.9306 71.367 25.2126C71.367 25.5415 71.367 25.847 71.367 26.1994Z" fill="white"/>
<path d="M87.7867 26.2933C87.7867 26.6223 87.7867 26.9512 87.7867 27.3037C87.8098 27.5856 87.6025 27.4916 87.4643 27.4916C87.3262 27.4916 87.1189 27.5856 87.165 27.3037C87.165 27.2567 87.165 27.2097 87.165 27.1862C87.165 26.4343 87.1649 26.4343 86.405 26.5048C86.2668 26.5048 86.2208 26.5518 86.2208 26.6928C86.2208 26.8337 86.2208 26.9747 86.2208 27.1392C86.2208 27.5151 86.0365 27.6326 85.6911 27.5151C85.5759 27.4681 85.599 27.3976 85.599 27.3272C85.599 26.6458 85.599 25.9409 85.599 25.2595C85.599 24.9776 85.7832 25.0716 85.9214 25.0716C86.0596 25.0716 86.2668 25.0011 86.2438 25.2595C86.2438 25.283 86.2438 25.3065 86.2438 25.33C86.2668 26.0819 86.2668 26.0584 87.0037 26.0349C87.1649 26.0349 87.188 25.9644 87.188 25.8234C87.188 25.6824 87.211 25.5415 87.188 25.424C87.1419 25.1186 87.2571 25.0481 87.5334 25.0716C87.7407 25.0716 87.8328 25.1185 87.8098 25.3535C87.7637 25.6355 87.7867 25.9644 87.7867 26.2933Z" fill="white"/>
<path d="M60.4972 26.2464C60.4972 25.9174 60.4972 25.5885 60.4972 25.2361C60.4972 25.0716 60.5432 25.0246 60.7044 25.0246C61.119 25.0481 61.5565 25.0246 61.971 25.0481C62.4316 25.0716 62.6619 25.3065 62.6849 25.7765C62.708 26.2934 62.6849 26.8103 62.708 27.3037C62.708 27.5856 62.5237 27.4916 62.3856 27.4916C62.2474 27.4916 62.0632 27.5621 62.0632 27.3037C62.0862 26.8808 62.0632 26.4578 62.0632 26.0584C62.0632 25.612 62.0171 25.565 61.6026 25.565C61.119 25.565 61.119 25.565 61.119 26.0349C61.119 26.4343 61.0959 26.8573 61.119 27.2567C61.142 27.6091 60.9117 27.4916 60.7275 27.5151C60.5202 27.5386 60.4511 27.4682 60.4741 27.2567C60.5202 26.9043 60.4972 26.5753 60.4972 26.2464Z" fill="white"/>
<path d="M79.9338 26.2699C79.9338 25.9174 79.9338 25.5885 79.9338 25.2361C79.9338 25.0716 79.9799 25.0246 80.1411 25.0246C80.5556 25.0481 80.9931 25.0246 81.4077 25.0481C81.8683 25.0716 82.0985 25.3065 82.1216 25.7765C82.1446 26.2934 82.1216 26.8103 82.1446 27.3037C82.1446 27.5151 82.0295 27.5151 81.9143 27.4681C81.7761 27.4212 81.5228 27.6326 81.5228 27.3037C81.5228 26.8573 81.5228 26.4108 81.5228 25.9644C81.5228 25.612 81.4537 25.5415 81.1083 25.5415C80.5786 25.5415 80.5786 25.5415 80.5786 26.0584C80.5786 26.4578 80.5556 26.8808 80.5786 27.2802C80.6017 27.5856 80.3944 27.4916 80.2562 27.4916C80.118 27.4916 79.9338 27.5386 79.9568 27.2802C79.9338 26.9512 79.9338 26.6223 79.9338 26.2699Z" fill="white"/>
<path d="M53.2892 26.5988C53.2892 26.8337 53.2892 27.0687 53.2892 27.2802C53.2892 27.4446 53.2431 27.4916 53.0819 27.4916C52.6214 27.4916 52.6214 27.5151 52.6214 27.0452C52.6214 26.6693 52.6214 26.2933 52.6214 25.9174C52.6444 25.3065 52.8747 25.0716 53.4734 25.0481C53.7498 25.0246 54.0261 25.0481 54.3025 25.0246C54.5558 25.0011 54.5328 25.1421 54.5328 25.3065C54.5558 25.4945 54.4867 25.565 54.3025 25.5415C54.0952 25.518 53.8649 25.5415 53.6577 25.5415C53.4043 25.5415 53.3122 25.659 53.3122 25.9174C53.3122 26.1524 53.2892 26.3638 53.2892 26.5988Z" fill="white"/>
<path d="M10.9849 5.00621C10.5473 5.00621 10.2019 4.67726 10.1788 4.23085C10.1788 3.76093 10.5243 3.385 10.9849 3.385C11.3994 3.385 11.7678 3.76093 11.7678 4.18385C11.7909 4.63027 11.4224 5.00621 10.9849 5.00621Z" fill="white"/>
<path d="M8.98134 2.68014C9.37284 2.68014 9.67222 2.98558 9.67222 3.38501C9.67222 3.78444 9.37284 4.06639 8.98134 4.06639C8.58985 4.06639 8.26744 3.73745 8.29047 3.36152C8.29047 2.96209 8.58985 2.68014 8.98134 2.68014Z" fill="white"/>
<path d="M7.53044 6.08705C7.16198 6.08705 6.83957 5.7816 6.83957 5.40567C6.83957 5.00624 7.16198 4.7008 7.55347 4.7008C7.92194 4.7008 8.24434 5.02974 8.24434 5.40567C8.24434 5.7816 7.94496 6.08705 7.53044 6.08705Z" fill="white"/>
<path d="M6.44822 2.91509C6.81669 2.91509 7.13909 3.22053 7.13909 3.59646C7.13909 3.9724 6.81669 4.32483 6.44822 4.32483C6.07976 4.32483 5.73432 3.9724 5.75735 3.59646C5.75735 3.22053 6.07976 2.91509 6.44822 2.91509Z" fill="white"/>
<path d="M13.0115 2.2572C13.0115 2.65663 12.7351 2.96207 12.3436 2.96207C11.9522 2.96207 11.6528 2.65663 11.6528 2.2572C11.6528 1.88127 11.9752 1.57583 12.3436 1.57583C12.7351 1.55233 13.0345 1.85778 13.0115 2.2572Z" fill="white"/>
<path d="M17.3409 5.94604C16.9724 5.94604 16.65 5.6406 16.65 5.26467C16.65 4.86524 16.9264 4.5598 17.3179 4.5598C17.7094 4.5598 18.0318 4.86524 18.0318 5.24117C18.0087 5.6171 17.7094 5.94604 17.3409 5.94604Z" fill="white"/>
<path d="M9.85647 1.97526C9.60315 1.97526 9.41891 1.7638 9.44194 1.50534C9.44194 1.27038 9.64921 1.05892 9.8795 1.08242C10.1098 1.08242 10.317 1.31738 10.317 1.55233C10.294 1.76379 10.0868 1.97526 9.85647 1.97526Z" fill="white"/>
<path d="M12.2284 0.870976C11.9981 0.870976 11.7909 0.659513 11.7909 0.44805C11.7909 0.213092 12.0212 -0.0218687 12.2515 0.00162711C12.4817 0.00162711 12.689 0.213092 12.689 0.44805C12.689 0.659513 12.4817 0.870976 12.2284 0.870976Z" fill="white"/>
<path d="M14.9458 7.14435C14.9458 7.4028 14.7616 7.56727 14.5313 7.59077C14.2779 7.59077 14.0937 7.4028 14.0937 7.14435C14.0937 6.8859 14.2779 6.69793 14.5543 6.72143C14.7846 6.69793 14.9458 6.8859 14.9458 7.14435Z" fill="white"/>
<path d="M14.6926 3.87844C14.6926 4.1369 14.5083 4.32487 14.232 4.30137C13.9787 4.30137 13.8175 4.11341 13.8175 3.85495C13.8175 3.5965 14.0017 3.40853 14.232 3.40853C14.4853 3.43202 14.6926 3.64349 14.6926 3.87844Z" fill="white"/>
<path d="M92.5076 24.7192C92.2082 24.6957 91.978 24.6017 91.8628 24.2727C91.8398 24.2022 91.7937 24.1083 91.8858 24.0613C91.9549 24.0378 92.047 24.0378 92.1161 24.1083C92.4616 24.4372 92.5997 24.4372 92.9221 24.1083C92.9912 24.0378 93.0603 24.0378 93.1524 24.0613C93.2676 24.1083 93.2215 24.2022 93.1985 24.2727C93.1064 24.5547 92.83 24.7192 92.5076 24.7192Z" fill="white"/>
</svg>
