<svg width="70" height="22" viewBox="0 0 70 22" fill="none" xmlns="http://www.w3.org/2000/svg">
<path d="M0 9.55974C0.0887358 9.29132 0.0739465 9.0229 0.118314 8.75448C0.236629 7.97905 0.428889 7.21853 0.680307 6.47292C0.709886 6.38345 0.754254 6.35362 0.857779 6.36854C1.02046 6.39836 1.18314 6.38345 1.33104 6.23433C1.49372 6.05538 1.75993 6.05538 1.95219 6.2045C2.15924 6.35362 2.21839 6.62204 2.10008 6.84573C1.83387 7.39748 2.17403 7.94922 2.7656 7.94922C2.8987 7.94922 2.95786 7.90449 3.0318 7.78519C3.19449 7.47204 3.54943 7.33783 3.87479 7.44221C4.18537 7.53168 4.422 7.82993 4.39242 8.17291C4.36284 8.5308 4.5551 8.73957 4.82131 8.9036C5.17625 9.12729 5.5312 9.09746 5.91572 8.88869C5.82698 9.29132 5.75303 9.67904 5.73825 10.0817C5.63472 12.7062 7.3207 14.9878 9.84967 15.6588C12.704 16.4044 15.7506 14.5702 16.4457 11.6624C16.5492 11.215 16.6232 10.7676 16.6084 10.3053C16.6084 10.1861 16.638 10.1413 16.7563 10.1562C18.5606 10.1562 20.3649 10.1562 22.1691 10.1562C22.3023 10.1562 22.317 10.201 22.317 10.3203C22.317 13.5413 21.2226 16.315 18.8859 18.5369C17.2739 20.0579 15.3661 20.9825 13.192 21.3851C12.7779 21.4596 12.3491 21.5342 11.9202 21.5491C11.8758 21.5491 11.8462 21.5342 11.8166 21.5789C11.373 21.5789 10.9145 21.5789 10.4708 21.5789C10.4265 21.5342 10.3673 21.5491 10.3229 21.5491C9.6722 21.5193 9.03626 21.4149 8.40032 21.236C5.64951 20.5202 3.49027 18.9544 1.89303 16.5834C0.931725 15.1667 0.354943 13.6009 0.118314 11.901C0.0739465 11.6325 0.0887358 11.3492 0 11.0808C0 10.5589 0 10.0668 0 9.55974ZM3.47548 10.4097C3.47548 10.8273 3.78606 11.1553 4.20016 11.1703C4.61426 11.1703 4.95441 10.8571 4.95441 10.4545C4.95441 10.0369 4.62905 9.69395 4.21495 9.67904C3.81564 9.67904 3.49027 9.99219 3.47548 10.4097ZM1.2423 9.99219C1.49372 9.99219 1.70077 9.78342 1.70077 9.54483C1.70077 9.30623 1.50851 9.11237 1.25709 9.11237C1.00567 9.11237 0.798622 9.30623 0.798622 9.55974C0.798622 9.79833 0.990883 9.99219 1.2423 9.99219ZM2.12966 10.7974C1.98177 10.7974 1.83387 10.9466 1.83387 11.0957C1.83387 11.2448 1.96698 11.3939 2.12966 11.3939C2.27755 11.3939 2.42544 11.2597 2.42544 11.1106C2.41065 10.9466 2.27755 10.7974 2.12966 10.7974Z" fill="#777B7C"/>
<path d="M32.5217 10.201C32.5365 10.7826 32.4773 11.3194 32.2851 11.8413C32.0041 12.6167 31.4717 13.1088 30.7026 13.3474C29.8744 13.586 29.0314 13.586 28.2032 13.3773C27.2863 13.1387 26.6947 12.5571 26.4581 11.6325C26.2067 10.7229 26.1919 9.79835 26.4285 8.8887C26.6799 7.9045 27.3011 7.2931 28.292 7.05451C29.061 6.87556 29.8301 6.87556 30.5991 7.06942C31.59 7.32293 32.1816 7.99397 32.4182 8.97818C32.5069 9.38081 32.5513 9.79835 32.5217 10.201ZM31.1019 10.201C31.1167 9.88782 31.1019 9.58958 31.028 9.27642C30.8949 8.73958 30.6435 8.29222 30.0963 8.08345C29.8448 7.97906 29.5639 7.97906 29.2976 7.97906C28.5582 8.00889 28.0849 8.36678 27.8631 9.08256C27.656 9.75361 27.6856 10.4247 27.8187 11.1106C27.9666 11.8413 28.3659 12.3185 29.135 12.3931C29.9927 12.4825 30.7174 12.1992 30.9984 11.2448C31.0871 10.9168 31.1167 10.5738 31.1019 10.201Z" fill="#777B7C"/>
<path d="M58.9944 10.2308C58.9944 11.215 58.9944 12.2141 58.9944 13.1983C58.9944 13.3474 58.95 13.3922 58.8021 13.3772C58.4916 13.3623 58.1662 13.3623 57.8556 13.3772C57.7077 13.3772 57.6782 13.3325 57.6782 13.1834C57.6782 11.5729 57.6782 9.96236 57.6929 8.35185C57.6929 8.15799 57.6338 8.12817 57.4711 8.12817C56.8056 8.14308 56.1401 8.14308 55.4745 8.12817C55.3119 8.12817 55.2675 8.15799 55.2675 8.33694C55.2823 9.94745 55.2675 11.558 55.2823 13.1685C55.2823 13.3474 55.2379 13.3922 55.0604 13.3772C54.7499 13.3623 54.4245 13.3623 54.1139 13.3772C54.0104 13.3772 53.966 13.3623 53.966 13.243C53.966 11.215 53.966 9.18693 53.966 7.15888C53.966 7.05449 53.9956 7.02467 54.0991 7.02467C55.6964 7.02467 57.2788 7.02467 58.8761 7.02467C59.0092 7.02467 59.024 7.08432 59.024 7.1887C58.9944 8.21764 58.9944 9.21676 58.9944 10.2308Z" fill="#777B7C"/>
<path d="M33.3202 11.886C33.3202 10.8869 33.3202 9.88779 33.3202 8.90359C33.3202 8.75447 33.3498 8.70973 33.4977 8.70973C34.2372 8.72464 34.9914 8.69482 35.7309 8.72464C36.8401 8.75447 37.6387 9.2913 37.8606 10.4843C38.0232 11.379 37.9049 12.2141 37.2098 12.8851C36.914 13.1834 36.5295 13.3027 36.1302 13.3474C35.657 13.4071 35.1689 13.3772 34.6809 13.3772C34.5625 13.3772 34.5182 13.4071 34.533 13.5264C34.5478 13.9886 34.533 14.436 34.533 14.8983C34.533 15.0176 34.5034 15.0623 34.3851 15.0474C34.0745 15.0325 33.7787 15.0325 33.4681 15.0474C33.335 15.0474 33.3055 15.0176 33.3055 14.8834C33.3202 13.8992 33.3202 12.9001 33.3202 11.886ZM34.533 11.0509C34.533 11.4536 34.533 11.8413 34.533 12.2439C34.533 12.3334 34.5478 12.393 34.6661 12.3781C34.9471 12.3632 35.2281 12.393 35.5238 12.3632C36.1154 12.3185 36.4556 12.1246 36.6035 11.558C36.6774 11.2746 36.6774 10.9913 36.6478 10.708C36.6035 10.2457 36.426 9.87288 35.9084 9.75358C35.4795 9.66411 35.0506 9.70885 34.6217 9.69393C34.5034 9.69393 34.5478 9.78341 34.5478 9.84305C34.533 10.2606 34.533 10.6483 34.533 11.0509Z" fill="#777B7C"/>
<path d="M60.1037 11.8711C60.1037 10.8869 60.1037 9.88781 60.1037 8.90361C60.1037 8.75449 60.1481 8.72466 60.2812 8.72466C61.0206 8.73957 61.7601 8.72466 62.4996 8.72466C63.5348 8.73957 64.2743 9.24659 64.5553 10.1413C64.8215 11.0062 64.7771 11.8413 64.2447 12.6018C63.9193 13.0641 63.4609 13.2878 62.9137 13.3474C62.4404 13.4071 61.9672 13.3773 61.4939 13.3773C61.346 13.3773 61.3164 13.422 61.3164 13.5562C61.3312 14.0036 61.3164 14.4509 61.3164 14.8834C61.3164 15.0325 61.2721 15.0623 61.139 15.0623C60.8432 15.0474 60.5474 15.0474 60.2516 15.0623C60.1185 15.0623 60.0889 15.0176 60.0889 14.8983C60.1037 13.8843 60.1037 12.8702 60.1037 11.8711ZM61.3164 11.051C61.3164 11.4536 61.3164 11.8413 61.3164 12.2439C61.3164 12.3334 61.3164 12.3931 61.4347 12.3931C61.7305 12.3781 62.0115 12.3931 62.3073 12.3931C62.8249 12.3781 63.1947 12.1246 63.3278 11.7071C63.4313 11.379 63.4313 11.051 63.4017 10.7229C63.3574 10.2457 63.1651 9.88781 62.6475 9.78343C62.2334 9.69395 61.8045 9.73869 61.3904 9.73869C61.2721 9.73869 61.3016 9.81325 61.3016 9.8729C61.3164 10.2606 61.3164 10.6483 61.3164 11.051Z" fill="#777B7C"/>
<path d="M42.9629 11.0509C42.9629 9.87288 43.5544 9.00798 44.6193 8.73956C45.5658 8.50096 46.4827 8.59044 47.2222 9.33605C47.7546 9.87288 47.9025 10.5588 47.8433 11.2895C47.8138 11.7667 47.6807 12.2141 47.3701 12.5869C46.9708 13.079 46.4531 13.3325 45.832 13.422C45.2996 13.4965 44.7967 13.4518 44.3087 13.243C43.4509 12.9001 42.9629 12.0799 42.9629 11.0509ZM46.5863 11.0509C46.5863 10.8124 46.5419 10.5738 46.4679 10.3501C46.3052 9.90271 45.9207 9.63429 45.4327 9.63429C44.9446 9.61938 44.5453 9.85797 44.3679 10.3053C44.1756 10.7676 44.1904 11.2299 44.3235 11.7071C44.6045 12.6465 45.8172 12.6764 46.2609 12.0948C46.5123 11.7816 46.5715 11.4237 46.5863 11.0509Z" fill="#777B7C"/>
<path d="M69.9977 10.9167C69.9977 12.0501 69.6279 12.8106 68.711 13.243C67.7349 13.6904 66.4483 13.4816 65.7679 12.7808C65.2355 12.229 65.0729 11.5281 65.132 10.7825C65.1764 10.2308 65.3686 9.72377 65.7679 9.32114C66.3595 8.73957 67.0842 8.59044 67.8828 8.65009C68.3413 8.67992 68.785 8.82904 69.1547 9.12729C69.7758 9.61939 70.0273 10.2755 69.9977 10.9167ZM68.7406 10.9466C68.7406 10.7974 68.7258 10.6632 68.6814 10.5141C68.5483 9.99219 68.149 9.66412 67.6166 9.64921C67.0694 9.61939 66.6701 9.90272 66.4926 10.4246C66.3743 10.7825 66.3743 11.1404 66.4335 11.4983C66.5222 12.0352 66.9215 12.4229 67.4243 12.4825C68.0307 12.5422 68.4744 12.2588 68.6666 11.6922C68.7406 11.4387 68.7554 11.1852 68.7406 10.9466Z" fill="#777B7C"/>
<path d="M52.7682 11.0509C52.7682 11.7816 52.7682 12.4974 52.7682 13.2281C52.7682 13.3623 52.7386 13.3922 52.6055 13.3922C52.3097 13.3772 52.0139 13.3772 51.7182 13.3922C51.5703 13.3922 51.5555 13.3474 51.5555 13.2281C51.5555 12.1395 51.5555 11.036 51.5555 9.94745C51.5555 9.79833 51.5259 9.75359 51.378 9.75359C51.0822 9.7685 50.7716 9.75359 50.4611 9.7685C49.8695 9.7685 49.766 9.94745 49.7512 10.529C49.7364 11.4238 49.7364 12.3036 49.7512 13.1983C49.7512 13.3623 49.7216 13.422 49.5441 13.422C49.2779 13.4071 48.9969 13.4071 48.7307 13.422C48.5976 13.422 48.5532 13.4071 48.5532 13.2579C48.568 12.2588 48.5385 11.2448 48.568 10.2457C48.5976 9.24658 49.0857 8.88868 49.9139 8.79921C50.816 8.69482 51.7329 8.76939 52.6351 8.75448C52.783 8.75448 52.7534 8.82903 52.7534 8.91851C52.7682 9.60447 52.7682 10.3352 52.7682 11.0509Z" fill="#777B7C"/>
<path d="M14.2273 7.00975C14.1978 5.9659 15.0999 5.01152 16.1943 5.01152C17.3331 5.01152 18.2204 5.90625 18.2204 7.02467C18.2204 8.09834 17.3183 9.00798 16.2535 9.02289C15.1147 9.05272 14.183 8.06851 14.2273 7.00975Z" fill="#777B7C"/>
<path d="M41.0995 10.5738C41.5136 10.5738 41.9129 10.5738 42.327 10.5738C42.4453 10.5738 42.4897 10.6036 42.4897 10.7229C42.4749 10.9317 42.4749 11.1553 42.4897 11.3641C42.4897 11.4983 42.4453 11.5431 42.3122 11.5431C41.5136 11.5431 40.715 11.5431 39.9164 11.5431C39.7389 11.5431 39.7241 11.6027 39.7537 11.7518C39.8572 12.229 39.9903 12.3483 40.4636 12.3931C41.0847 12.4676 41.7059 12.408 42.327 12.4229C42.4749 12.4229 42.5045 12.4676 42.5045 12.6018C42.4897 12.8106 42.4897 13.0343 42.5045 13.2431C42.5045 13.3474 42.4897 13.3922 42.3714 13.3922C41.6467 13.3773 40.922 13.4369 40.1974 13.3474C39.1621 13.2132 38.6001 12.6317 38.4522 11.5878C38.3783 11.0659 38.4079 10.5589 38.5705 10.0518C38.822 9.21677 39.4875 8.85888 40.2269 8.7694C40.9368 8.67993 41.6615 8.75449 42.3862 8.72467C42.5045 8.72467 42.5193 8.7694 42.5193 8.87379C42.5193 9.08256 42.5045 9.30624 42.5193 9.51501C42.5193 9.64922 42.4897 9.69396 42.3418 9.69396C41.8686 9.67904 41.3953 9.69396 40.922 9.69396C40.7002 9.69396 40.4784 9.72378 40.2565 9.76852C39.9607 9.84308 39.7389 10.201 39.7685 10.4992C39.7833 10.6036 39.8424 10.5887 39.9016 10.5887C40.2861 10.5738 40.6854 10.5738 41.0995 10.5738Z" fill="#777B7C"/>
<path d="M5.47208 6.15976C6.04887 6.15976 6.50733 6.60712 6.50733 7.1887C6.50733 7.77028 6.03408 8.24747 5.45729 8.23255C4.8953 8.21764 4.43683 7.75536 4.43683 7.1887C4.43683 6.60712 4.8953 6.15976 5.47208 6.15976Z" fill="#777B7C"/>
<path d="M2.39584 3.7738C2.97262 3.7738 3.43109 4.23608 3.43109 4.80275C3.43109 5.36941 2.95784 5.86151 2.39584 5.8466C1.83385 5.8466 1.37538 5.36941 1.36059 4.80275C1.36059 4.23608 1.83385 3.7738 2.39584 3.7738Z" fill="#777B7C"/>
<path d="M50.5498 16.5237C50.4462 16.7921 50.3427 17.0606 50.254 17.3439C50.2096 17.4632 50.1357 17.4781 50.0469 17.4632C49.9434 17.4483 49.8103 17.5228 49.7512 17.3439C49.6624 17.0606 49.5441 16.7772 49.4258 16.4939C49.411 16.7623 49.3962 17.0158 49.4258 17.2693C49.4406 17.3737 49.4554 17.4781 49.2927 17.4483C49.1892 17.4334 49.0117 17.5377 49.0265 17.2842C49.0413 16.8667 49.0413 16.4641 49.0265 16.0465C49.0265 15.8974 49.0708 15.8676 49.2039 15.8676C49.5885 15.8676 49.5885 15.8676 49.7216 16.2404C49.7955 16.4641 49.8843 16.6728 49.9582 16.8965C49.9582 16.9114 49.973 16.9114 49.9878 16.9413C50.0913 16.807 50.1061 16.643 50.1653 16.4939C50.2244 16.3448 50.2836 16.1807 50.3279 16.0316C50.3575 15.9123 50.4167 15.8825 50.535 15.8825C50.9343 15.8825 50.9343 15.8825 50.9343 16.2851C50.9343 16.5983 50.9343 16.9263 50.9343 17.2395C50.9343 17.4632 50.9343 17.4632 50.6533 17.4483C50.461 17.4483 50.5498 17.3141 50.535 17.2246C50.535 16.986 50.535 16.7474 50.5498 16.5237Z" fill="#777B7C"/>
<path d="M38.4374 16.7623C38.4374 17.0009 38.4374 17.2395 38.4374 17.4781C38.4226 17.836 38.2451 18.0149 37.8902 18.0149C37.6536 18.0149 37.4169 18.0149 37.1803 18.0149C37.0472 18.0149 37.0472 17.9553 37.0472 17.8509C37.0472 17.7465 37.062 17.6869 37.1803 17.6869C37.3874 17.7018 37.5944 17.6869 37.7867 17.6869C37.8606 17.6869 37.9493 17.6719 37.9937 17.6123C38.0233 17.5676 38.0381 17.5228 38.0233 17.4781C38.0085 17.4334 37.9641 17.4483 37.9198 17.4483C37.7423 17.4334 37.5796 17.4632 37.4021 17.4184C37.1507 17.3588 37.0472 17.2395 37.0324 16.9711C37.0176 16.643 37.0176 16.3149 37.0176 15.972C37.0176 15.793 37.1507 15.8825 37.2395 15.8676C37.3134 15.8527 37.4317 15.8228 37.4317 15.9869C37.4169 16.2553 37.4317 16.5237 37.4317 16.807C37.4317 17.0456 37.4761 17.0904 37.7127 17.1053C37.7719 17.1053 37.831 17.1053 37.8902 17.1053C38.0085 17.1202 38.0381 17.0606 38.0381 16.9562C38.0381 16.643 38.0529 16.3299 38.0381 16.0167C38.0233 15.8228 38.1564 15.8676 38.2599 15.8676C38.3782 15.8527 38.467 15.8676 38.4522 16.0316C38.4374 16.2702 38.4374 16.5237 38.4374 16.7623Z" fill="#777B7C"/>
<path d="M35.243 16.9562C35.243 16.643 35.243 16.3298 35.243 16.0167C35.243 15.8974 35.2873 15.8825 35.3908 15.8825C35.5979 15.8974 35.8197 15.8825 36.0268 15.8825C36.5592 15.8825 36.8846 16.2851 36.7958 16.822C36.7219 17.2246 36.4705 17.4483 36.0416 17.4483C35.657 17.4483 35.6423 17.4483 35.6571 17.836C35.6571 18.0149 35.5831 18.0149 35.45 18C35.3317 18 35.2282 18.0149 35.243 17.836C35.2577 17.5526 35.243 17.2544 35.243 16.9562ZM35.6423 16.6579C35.6423 16.7772 35.6423 16.8965 35.6423 17.0158C35.6423 17.0755 35.6423 17.1202 35.7162 17.1202C36.1303 17.1351 36.3669 17.0755 36.3521 16.6132C36.3374 16.3 36.2338 16.2106 35.8197 16.2106C35.4796 16.1956 35.6866 16.4491 35.6275 16.5684C35.6423 16.5983 35.6423 16.6281 35.6423 16.6579Z" fill="#777B7C"/>
<path d="M54.0105 17.4483C53.8478 17.4483 53.6851 17.4483 53.5224 17.4483C53.2414 17.4334 53.0787 17.2992 53.0492 17.0456C53.0196 16.7623 53.1527 16.5983 53.4189 16.5237C53.6259 16.4641 53.833 16.5088 54.0548 16.4939C54.114 16.4939 54.2027 16.5386 54.2175 16.4342C54.2323 16.3448 54.1879 16.2553 54.0992 16.2255C54.0253 16.2106 53.9513 16.1956 53.8921 16.1956C53.6999 16.1956 53.5076 16.1807 53.3154 16.1956C53.1823 16.2106 53.1675 16.136 53.1675 16.0316C53.1675 15.9421 53.1675 15.8676 53.3006 15.8676C53.5964 15.8825 53.8774 15.8676 54.1731 15.8825C54.4689 15.8974 54.6464 16.0913 54.6464 16.3895C54.6464 16.6877 54.6464 17.0009 54.6464 17.2991C54.6464 17.4035 54.6168 17.4483 54.5133 17.4334C54.3358 17.4483 54.1731 17.4483 54.0105 17.4483ZM53.8478 17.1351C53.9365 17.1351 54.0252 17.1351 54.1288 17.1351C54.2323 17.1351 54.2323 17.0606 54.2175 17.0009C54.2027 16.9263 54.2619 16.822 54.1288 16.822C53.9513 16.822 53.7738 16.807 53.5964 16.822C53.5076 16.822 53.4633 16.8965 53.4633 16.986C53.4633 17.0904 53.5076 17.1351 53.6112 17.1351C53.6999 17.1351 53.7738 17.1351 53.8478 17.1351Z" fill="#777B7C"/>
<path d="M43.303 17.4483C43.1403 17.4483 42.9777 17.4483 42.815 17.4483C42.5488 17.4333 42.3861 17.2991 42.3565 17.0456C42.3269 16.7623 42.4452 16.5983 42.7115 16.5237C42.9185 16.4641 43.1256 16.5088 43.3474 16.4939C43.4066 16.4939 43.5101 16.5386 43.5101 16.4342C43.5249 16.3298 43.4657 16.2553 43.3622 16.2255C43.2735 16.2106 43.1847 16.2106 43.1108 16.2106C42.9481 16.2106 42.7854 16.1956 42.6227 16.2106C42.4896 16.2255 42.46 16.1658 42.4748 16.0465C42.4748 15.9421 42.4896 15.8825 42.6227 15.8825C42.9037 15.8974 43.1847 15.8825 43.4657 15.8974C43.7615 15.9123 43.939 16.1062 43.9538 16.4193C43.9538 16.7176 43.9538 17.0158 43.9538 17.314C43.9538 17.4333 43.9242 17.4632 43.8059 17.4632C43.6284 17.4483 43.4657 17.4483 43.303 17.4483ZM43.1699 17.1351C43.2587 17.1351 43.3474 17.1351 43.4509 17.1351C43.5544 17.1351 43.5397 17.0605 43.5397 17.0009C43.5397 16.9412 43.584 16.8369 43.4657 16.822C43.2882 16.807 43.096 16.807 42.9185 16.822C42.8298 16.822 42.7854 16.8965 42.7854 16.986C42.7854 17.0904 42.8446 17.1202 42.9333 17.1202C43.0072 17.1351 43.0812 17.1351 43.1699 17.1351Z" fill="#777B7C"/>
<path d="M6.06365 5.30976C6.06365 5.71239 5.73828 6.04045 5.33897 6.04045C4.93966 6.04045 4.59951 5.69747 4.59951 5.29485C4.59951 4.87731 4.92487 4.56415 5.33897 4.56415C5.75307 4.56415 6.06365 4.87731 6.06365 5.30976Z" fill="#777B7C"/>
<path d="M6.93613 4.53435C6.93613 4.11681 7.26149 3.77383 7.6608 3.78874C8.06011 3.78874 8.40027 4.13172 8.40027 4.53435C8.40027 4.93697 8.06011 5.27995 7.64601 5.27995C7.26149 5.26504 6.93613 4.93697 6.93613 4.53435Z" fill="#777B7C"/>
<path d="M57.1606 16.8816C57.3677 16.5685 57.5304 16.3 57.7078 16.0316C57.7818 15.9123 58.1367 15.8228 58.255 15.8974C58.2994 15.9272 58.2846 15.972 58.2846 16.0018C58.2846 16.4492 58.2846 16.9114 58.2846 17.3588C58.2846 17.4334 58.255 17.4483 58.1811 17.4632C57.8705 17.493 57.8705 17.493 57.8705 17.1649C57.8705 16.9263 57.8705 16.6877 57.8705 16.3895C57.6635 16.7027 57.5008 16.9711 57.3233 17.2544C57.205 17.4334 57.0127 17.5079 56.8057 17.4483C56.7317 17.4334 56.7465 17.3886 56.7465 17.3439C56.7465 16.8965 56.7465 16.4342 56.7465 15.9869C56.7465 15.8974 56.7761 15.8825 56.8649 15.8825C57.1606 15.8676 57.1606 15.8676 57.1606 16.1509C57.1606 16.3746 57.1606 16.5983 57.1606 16.8816Z" fill="#777B7C"/>
<path d="M59.7783 16.3895C59.5564 16.7325 59.3642 17.0307 59.1719 17.329C59.1128 17.4184 58.7578 17.5079 58.6691 17.4483C58.6247 17.4184 58.6395 17.3737 58.6395 17.3439C58.6395 16.8965 58.6395 16.4492 58.6395 16.0018C58.6395 15.9123 58.6691 15.8974 58.7578 15.8825C59.0536 15.8676 59.0536 15.8527 59.0536 16.1509C59.0536 16.3746 59.0536 16.5983 59.0536 16.8816C59.2459 16.5834 59.4086 16.3448 59.5564 16.0913C59.6748 15.9123 59.9114 15.8228 60.1184 15.8974C60.1776 15.9123 60.1776 15.957 60.1776 16.0018C60.1776 16.4492 60.1776 16.9114 60.1776 17.3588C60.1776 17.4333 60.1628 17.4632 60.0741 17.4632C59.7635 17.493 59.7635 17.493 59.7635 17.1798C59.7783 16.9263 59.7783 16.6877 59.7783 16.3895Z" fill="#777B7C"/>
<path d="M47.9321 17.4632C47.4292 17.4632 47.1039 17.1649 47.1039 16.6878C47.1039 16.1957 47.4144 15.8676 47.9025 15.8527C48.4053 15.8527 48.7603 16.1658 48.7603 16.6579C48.7603 17.15 48.4497 17.4632 47.9321 17.4632ZM47.5327 16.6579C47.5327 16.9711 47.6658 17.1351 47.9321 17.1351C48.1687 17.1351 48.3314 16.9413 48.3314 16.6579C48.3314 16.3746 48.1687 16.1957 47.9321 16.1807C47.6954 16.1807 47.5327 16.3597 47.5327 16.6579Z" fill="#777B7C"/>
<path d="M41.0403 16.8369C41.0403 17.0009 41.0403 17.1649 41.0403 17.329C41.0551 17.4781 40.9516 17.4632 40.8776 17.4483C40.7889 17.4334 40.641 17.5377 40.641 17.3439C40.641 16.8965 40.641 16.4491 40.641 15.9869C40.641 15.8974 40.6853 15.8825 40.7593 15.8825C41.0403 15.8825 41.3213 15.8825 41.6023 15.8974C41.8833 15.9123 42.0312 16.0614 42.0312 16.3448C42.046 16.6728 42.0312 17.0009 42.046 17.3439C42.046 17.5377 41.8981 17.4483 41.8241 17.4632C41.7354 17.4781 41.6466 17.493 41.6466 17.329C41.6614 17.0456 41.6466 16.7772 41.6466 16.4939C41.6466 16.2702 41.6023 16.2255 41.3804 16.2255C41.0403 16.2255 41.0403 16.2255 41.0403 16.5684C41.0403 16.643 41.0403 16.7474 41.0403 16.8369Z" fill="#777B7C"/>
<path d="M45.832 16.6281C46.0095 16.4343 46.1574 16.2851 46.2905 16.1062C46.4236 15.9272 46.5715 15.8378 46.7933 15.8825C46.8525 15.8974 46.9116 15.8825 47.0152 15.8825C46.8081 16.1062 46.6454 16.315 46.4384 16.479C46.2905 16.6132 46.3201 16.6878 46.4384 16.8071C46.6306 17.0009 46.8081 17.2097 46.9856 17.4035C46.6454 17.5079 46.4679 17.4483 46.2609 17.1948C46.1278 17.0307 45.9947 16.8816 45.832 16.6728C45.832 16.9114 45.8172 17.1053 45.832 17.2992C45.8468 17.493 45.7137 17.4185 45.625 17.4334C45.5362 17.4334 45.4327 17.4632 45.4327 17.2992C45.4475 16.8667 45.4475 16.4343 45.4327 16.0018C45.4327 15.8079 45.551 15.8676 45.6397 15.8676C45.7285 15.8676 45.8468 15.8229 45.832 16.0018C45.832 16.2106 45.832 16.4044 45.832 16.6281Z" fill="#777B7C"/>
<path d="M56.3768 16.6877C56.3768 16.8965 56.3768 17.1053 56.3768 17.329C56.3916 17.5079 56.2585 17.4482 56.1698 17.4482C56.081 17.4482 55.9479 17.5079 55.9775 17.329C55.9775 17.2991 55.9775 17.2693 55.9775 17.2544C55.9775 16.7772 55.9775 16.7772 55.4894 16.8219C55.4007 16.8219 55.3711 16.8518 55.3711 16.9412C55.3711 17.0307 55.3711 17.1202 55.3711 17.2246C55.3711 17.4632 55.2528 17.5377 55.031 17.4632C54.957 17.4333 54.9718 17.3886 54.9718 17.3439C54.9718 16.9114 54.9718 16.464 54.9718 16.0316C54.9718 15.8526 55.0901 15.9123 55.1789 15.9123C55.2676 15.9123 55.4007 15.8676 55.3859 16.0316C55.3859 16.0465 55.3859 16.0614 55.3859 16.0763C55.4007 16.5535 55.4007 16.5386 55.874 16.5237C55.9775 16.5237 55.9923 16.479 55.9923 16.3895C55.9923 16.3 56.0071 16.2105 55.9923 16.136C55.9627 15.9421 56.0366 15.8974 56.2141 15.9123C56.3472 15.9123 56.4064 15.9421 56.3916 16.0912C56.362 16.2702 56.3768 16.479 56.3768 16.6877Z" fill="#777B7C"/>
<path d="M38.8514 16.6579C38.8514 16.4491 38.8514 16.2404 38.8514 16.0167C38.8514 15.9123 38.881 15.8825 38.9845 15.8825C39.2507 15.8974 39.5317 15.8825 39.7979 15.8974C40.0937 15.9123 40.2416 16.0614 40.2564 16.3597C40.2712 16.6877 40.2564 17.0158 40.2712 17.329C40.2712 17.5079 40.1529 17.4483 40.0641 17.4483C39.9754 17.4483 39.8571 17.493 39.8571 17.329C39.8719 17.0605 39.8571 16.7921 39.8571 16.5386C39.8571 16.2553 39.8275 16.2255 39.5613 16.2255C39.2507 16.2255 39.2507 16.2255 39.2507 16.5237C39.2507 16.7772 39.2359 17.0456 39.2507 17.2991C39.2655 17.5228 39.1176 17.4483 38.9993 17.4632C38.8662 17.4781 38.8218 17.4333 38.8366 17.2991C38.8662 17.0755 38.8514 16.8667 38.8514 16.6579Z" fill="#777B7C"/>
<path d="M51.3336 16.6728C51.3336 16.4491 51.3336 16.2404 51.3336 16.0167C51.3336 15.9123 51.3632 15.8825 51.4667 15.8825C51.733 15.8974 52.014 15.8825 52.2802 15.8974C52.576 15.9123 52.7238 16.0614 52.7386 16.3597C52.7534 16.6877 52.7386 17.0158 52.7534 17.329C52.7534 17.4632 52.6795 17.4632 52.6055 17.4333C52.5168 17.4035 52.3541 17.5377 52.3541 17.329C52.3541 17.0456 52.3541 16.7623 52.3541 16.479C52.3541 16.2553 52.3097 16.2106 52.0879 16.2106C51.7477 16.2106 51.7477 16.2105 51.7477 16.5386C51.7477 16.7921 51.733 17.0605 51.7477 17.3141C51.7625 17.5079 51.6294 17.4483 51.5407 17.4483C51.452 17.4483 51.3336 17.4781 51.3484 17.3141C51.3336 17.1053 51.3336 16.8965 51.3336 16.6728Z" fill="#777B7C"/>
<path d="M34.2224 16.8816C34.2224 17.0307 34.2224 17.1798 34.2224 17.314C34.2224 17.4184 34.1928 17.4482 34.0893 17.4482C33.7935 17.4482 33.7935 17.4632 33.7935 17.1649C33.7935 16.9263 33.7935 16.6877 33.7935 16.4491C33.8083 16.0614 33.9562 15.9123 34.3407 15.8974C34.5182 15.8825 34.6957 15.8974 34.8732 15.8825C35.0358 15.8676 35.021 15.957 35.021 16.0614C35.0358 16.1807 34.9915 16.2254 34.8732 16.2105C34.7401 16.1956 34.5922 16.2105 34.4591 16.2105C34.2964 16.2105 34.2372 16.2851 34.2372 16.4491C34.2372 16.5983 34.2224 16.7325 34.2224 16.8816Z" fill="#777B7C"/>
<path d="M7.0545 3.17731C6.7735 3.17731 6.55166 2.96854 6.53687 2.68521C6.53687 2.38697 6.75871 2.14837 7.0545 2.14837C7.32071 2.14837 7.55733 2.38697 7.55733 2.65539C7.57212 2.93872 7.33549 3.17731 7.0545 3.17731Z" fill="#777B7C"/>
<path d="M5.76784 1.70102C6.01925 1.70102 6.21151 1.89488 6.21151 2.14838C6.21151 2.40189 6.01925 2.58083 5.76784 2.58083C5.51642 2.58083 5.30937 2.37206 5.32416 2.13347C5.32416 1.87996 5.51642 1.70102 5.76784 1.70102Z" fill="#777B7C"/>
<path d="M4.83606 3.8633C4.59944 3.8633 4.39239 3.66944 4.39239 3.43084C4.39239 3.17734 4.59944 2.98348 4.85085 2.98348C5.08748 2.98348 5.29453 3.19225 5.29453 3.43084C5.29453 3.66944 5.10227 3.8633 4.83606 3.8633Z" fill="#777B7C"/>
<path d="M4.14106 1.85013C4.37769 1.85013 4.58474 2.04399 4.58474 2.28259C4.58474 2.52118 4.37769 2.74486 4.14106 2.74486C3.90443 2.74486 3.68259 2.52118 3.69738 2.28259C3.69738 2.04399 3.90443 1.85013 4.14106 1.85013Z" fill="#777B7C"/>
<path d="M8.356 1.43259C8.356 1.6861 8.17853 1.87995 7.92711 1.87995C7.6757 1.87995 7.48344 1.6861 7.48344 1.43259C7.48344 1.194 7.69049 1.00014 7.92711 1.00014C8.17853 0.985227 8.37079 1.17908 8.356 1.43259Z" fill="#777B7C"/>
<path d="M11.1363 3.77381C10.8997 3.77381 10.6927 3.57995 10.6927 3.34135C10.6927 3.08785 10.8701 2.89399 11.1216 2.89399C11.373 2.89399 11.58 3.08785 11.58 3.32644C11.5652 3.56504 11.373 3.77381 11.1363 3.77381Z" fill="#777B7C"/>
<path d="M6.32984 1.25365C6.16716 1.25365 6.04885 1.11944 6.06363 0.955403C6.06363 0.806281 6.19674 0.672071 6.34463 0.686983C6.49252 0.686983 6.62563 0.836105 6.62563 0.985227C6.61084 1.11944 6.47773 1.25365 6.32984 1.25365Z" fill="#777B7C"/>
<path d="M7.85312 0.552786C7.70522 0.552786 7.57212 0.418576 7.57212 0.284366C7.57212 0.135244 7.72001 -0.0138795 7.86791 0.00103269C8.0158 0.00103269 8.1489 0.135244 8.1489 0.284366C8.1489 0.418576 8.0158 0.552786 7.85312 0.552786Z" fill="#777B7C"/>
<path d="M9.59821 4.53434C9.59821 4.69837 9.4799 4.80276 9.332 4.81767C9.16932 4.81767 9.05101 4.69837 9.05101 4.53434C9.05101 4.37031 9.16932 4.25101 9.34679 4.26592C9.49469 4.25101 9.59821 4.37031 9.59821 4.53434Z" fill="#777B7C"/>
<path d="M9.43559 2.46155C9.43559 2.62559 9.31728 2.74488 9.13981 2.72997C8.97713 2.72997 8.8736 2.61068 8.8736 2.44664C8.8736 2.28261 8.99192 2.16331 9.13981 2.16331C9.30249 2.17822 9.43559 2.31243 9.43559 2.46155Z" fill="#777B7C"/>
<path d="M59.4086 15.6886C59.2163 15.6737 59.0684 15.6141 58.9945 15.4053C58.9797 15.3606 58.9501 15.3009 59.0093 15.2711C59.0536 15.2562 59.1128 15.2562 59.1572 15.3009C59.379 15.5097 59.4677 15.5097 59.6748 15.3009C59.7191 15.2562 59.7635 15.2562 59.8227 15.2711C59.8966 15.3009 59.867 15.3606 59.8522 15.4053C59.7931 15.5842 59.6156 15.6886 59.4086 15.6886Z" fill="#777B7C"/>
</svg>
